<?xml version="1.0" encoding="utf-8"?>
<!-- Generator: Adobe Illustrator 16.0.0, SVG Export Plug-In . SVG Version: 6.00 Build 0)  -->
<!DOCTYPE svg PUBLIC "-//W3C//DTD SVG 1.1//EN" "http://www.w3.org/Graphics/SVG/1.1/DTD/svg11.dtd">
<svg version="1.1" id="Capa_1" xmlns="http://www.w3.org/2000/svg" xmlns:xlink="http://www.w3.org/1999/xlink" x="0px" y="0px"
	 width="492.992px" height="512px" viewBox="9.502 0 492.992 512" enable-background="new 9.502 0 492.992 512"
	 xml:space="preserve">
<path fill="#F3F4F4" d="M499.801,495.635L356.165,346.257c36.636-36.743,59.333-87.396,59.333-143.259
	C415.498,91.059,324.439,0,212.5,0S9.502,91.059,9.502,202.998c0,111.939,91.06,202.998,202.998,202.998
	c49.136,0,94.229-17.564,129.377-46.709l143.984,149.745c1.895,1.981,4.427,2.968,6.97,2.968c2.416,0,4.823-0.899,6.698-2.697
	C503.377,505.601,503.493,499.481,499.801,495.635z M212.5,386.663c-101.276,0-183.665-82.388-183.665-183.665
	c0-101.277,82.389-183.665,183.665-183.665s183.665,82.388,183.665,183.665C396.165,304.275,313.767,386.663,212.5,386.663z"/>
</svg>
